<?xml version="1.0" encoding="UTF-8" standalone="no"?>
<!-- Created with Inkscape (http://www.inkscape.org/) -->

<svg
   width="300.45795mm"
   height="300.45795mm"
   viewBox="0 0 300.45795 300.45795"
   version="1.1"
   id="svg1"
   xml:space="preserve"
   inkscape:version="1.4.3 (0d15f75, 2025-12-25)"
   sodipodi:docname="alarm.svg"
   xmlns:inkscape="http://www.inkscape.org/namespaces/inkscape"
   xmlns:sodipodi="http://sodipodi.sourceforge.net/DTD/sodipodi-0.dtd"
   xmlns="http://www.w3.org/2000/svg"
   xmlns:svg="http://www.w3.org/2000/svg"><sodipodi:namedview
     id="namedview1"
     pagecolor="#505050"
     bordercolor="#eeeeee"
     borderopacity="1"
     inkscape:showpageshadow="0"
     inkscape:pageopacity="0"
     inkscape:pagecheckerboard="0"
     inkscape:deskcolor="#505050"
     inkscape:document-units="mm"
     inkscape:zoom="0.48693448"
     inkscape:cx="415.86704"
     inkscape:cy="493.90628"
     inkscape:window-width="1920"
     inkscape:window-height="991"
     inkscape:window-x="-9"
     inkscape:window-y="-9"
     inkscape:window-maximized="1"
     inkscape:current-layer="layer1" /><defs
     id="defs1" /><g
     inkscape:label="Layer 1"
     inkscape:groupmode="layer"
     id="layer1"
     transform="translate(11.52652,17.28978)"><g
       style="overflow:hidden;fill:currentColor;stroke-width:0.945001"
       id="g5"
       transform="matrix(0.27998155,0,0,0.27998155,-0.265308,-2.7133074)"
       class="alarm-bell"><path
         d="m 638.848,840.832 c -0.128,71.488 -63.872,129.408 -143.68,129.408 -79.296,0 -143.552,-57.664 -143.68,-129.408 z M 590.912,86.592 c 0,-47.488 -42.88,-86.208 -95.744,-86.208 -52.8,0 -95.808,38.592 -95.808,86.208 0,4.864 0.448,9.6 1.28,14.272 C 268.416,142.336 159.872,269.824 159.872,420.48 V 539.2 c 0,0 0,170.88 -46.656,172.416 -27.776,0 -49.088,19.328 -49.088,43.072 0,24 21.44,43.136 47.872,43.136 h 766.336 c 26.56,0 47.872,-19.328 47.872,-43.136 0,-23.936 -21.44,-43.072 -47.872,-43.072 -47.936,0 -47.936,-171.2 -47.936,-171.2 V 420.48 c 0,-150.976 -101.44,-278.4 -240.768,-319.808 0.896,-4.672 1.28,-9.408 1.28,-14.08 z"
         id="path5"
         style="stroke-width:0.945001"
         class="alarm-no-notification" /></g><g
       id="g10"
       class="alarm-with-notification"
       transform="matrix(1.6462814,0,0,1.6462814,-132.74853,-23.7556)"
       style="stroke-width:0.60743;"><path
         d="M 201.64341,3.9275296 A 54.497598,54.497598 0 0 0 147.14597,58.424978 54.497598,54.497598 0 0 0 201.64341,112.92243 54.497598,54.497598 0 0 0 256.14086,58.424978 54.497598,54.497598 0 0 0 201.64341,3.9275296 Z"
         style="fill:#ff0000;stroke-width:0.627633"
         id="path9"
         class="alarm-circle" /><text
         xml:space="preserve"
         style="font-style:normal;font-variant:normal;font-weight:bold;font-stretch:normal;font-size:76.8267px;line-height:1.1;font-family:Tahoma;-inkscape-font-specification:'Tahoma Bold';text-align:center;writing-mode:lr-tb;direction:ltr;text-anchor:middle;fill:#ffffff;stroke-width:3.64458;stroke-linecap:round;stroke-linejoin:round"
         x="201.2683"
         y="83.108559"
         id="text3"
         class="text-notification"><tspan
           sodipodi:role="line"
           id="tspan3"
           style="font-style:normal;font-variant:normal;font-weight:normal;font-stretch:normal;font-family:Forte;-inkscape-font-specification:Forte;fill:#ffffff;stroke-width:3.64457"
           x="201.2683"
           y="83.108559">99</tspan></text></g></g></svg>
