<svg version="1.1" id="Layer_1" xmlns:x="ns_extend;" xmlns:i="ns_ai;" xmlns:graph="ns_graphs;" xmlns="http://www.w3.org/2000/svg" xmlns:xlink="http://www.w3.org/1999/xlink" x="0px" y="0px" viewBox="0 0 208.6 64" style="enable-background:new 0 0 208.6 64;" xml:space="preserve">
 <style type="text/css">
  .st0{fill-rule:evenodd;clip-rule:evenodd;fill:#ED1C24;}
	.st1{fill-rule:evenodd;clip-rule:evenodd;fill:white;}
 </style>
 <metadata>
  <sfw xmlns="ns_sfw;">
   <slices>
   </slices>
   <sliceSourceBounds bottomLeftOrigin="true" height="64" width="208.6" x="95.9" y="-232.2">
   </sliceSourceBounds>
  </sfw>
 </metadata>
 <g>
  <path class="st0" d="M199,2.8c0,0-0.9-1.7-2.2-2.8c0,0,0.2,5.2-1.2,6c0,0-3.1,3.1-2.8,5.8c0,0,0.3,0.9,0.1,3.8c0,0,0.1,3.3,2.3,6.5
		c0,0,1.2,2.4,1.2,4.5c0,0,1.2,0.1,1.9-3c0,0,0.9-2.7,2.2-3.6c0,0,3.8-5.9,0.8-12.6L199,2.8z">
  </path>
  <path class="st1" d="M164.2,30.5l1.5-0.7c0.3-0.2,0.7-0.3,1-0.5c1.5-0.6,3.1-1,4.8-1c6.8,0,12.3,5.5,12.3,12.3
		c0,6.8-5.5,12.3-12.3,12.3c-2.5,0-4.8-0.7-6.7-2c-0.4,0-0.6,0.1-0.6,0.1v4c0,2.5,1.5,1.8,1.5,1.8h1.6c2.4,0,2.3,1.5,2.3,1.5v3.8
		c0,1.8-1.3,1.7-1.3,1.7h-19.7c-1.3-4.3,0.1-6.4,0.1-6.4h1.7c1.8,0,1.4-1.2,1.4-1.2V37.6c0-1.7-1.5-1.5-1.5-1.5h-1.4
		c-1.6,0-1.4-1.4-1.4-1.4v-4.3c0-1.6,2.3-1.4,2.3-1.4H163L164.2,30.5z M164,40.4c0,3,1.7,5.4,3.9,5.4c2.1,0,3.9-2.4,3.9-5.4
		c0-3-1.7-5.4-3.9-5.4C165.7,35.1,164,37.5,164,40.4 M124.5,30.5l1.5-0.7c0.3-0.2,0.7-0.3,1-0.5c1.5-0.6,3.1-1,4.8-1
		c6.8,0,12.3,5.5,12.3,12.3c0,6.8-5.5,12.3-12.3,12.3c-2.5,0-4.8-0.7-6.7-2c-0.4,0-0.6,0.1-0.6,0.1v4c0,2.5,1.5,1.8,1.5,1.8h1.6
		c2.4,0,2.3,1.5,2.3,1.5v3.8c0,1.8-1.3,1.7-1.3,1.7h-19.7c-1.3-4.3,0.1-6.4,0.1-6.4h1.7c1.8,0,1.4-1.2,1.4-1.2V37.6
		c0-1.7-1.5-1.5-1.5-1.5h-1.4c-1.6,0-1.4-1.4-1.4-1.4v-4.3c0-1.6,2.3-1.4,2.3-1.4h13.3L124.5,30.5z M124.3,40.4c0,3,1.7,5.4,3.9,5.4
		c2.1,0,3.9-2.4,3.9-5.4c0-3-1.7-5.4-3.9-5.4C126,35.1,124.3,37.5,124.3,40.4 M202.8,29H189c0,0-1.5-0.2-1.5,1.7V36h2.5
		c0,0,1.3-0.3,1.3,1.3v6.5c0,0-0.1,1.3-1.3,1.3l-2.1,0c0,0-1-0.1-1,1v4.5c0,0-0.1,1.3,1.5,1.3h18.3c0,0,1.8,0.4,1.8-1.8v-3.8
		c0,0,0.1-1.3-2.1-1.3h-1.7c0,0-1,0.1-1-1V30.4C203.8,30.4,203.9,29,202.8,29 M64.9,29l0,7h2.9c0,0,2-0.1,2,2.2v6
		c0,0,0.1,1.7-1.1,1.7h-2.9c0,0-1.4,2.6,0.2,6.2H84v-5.7c0,0,0-0.8-1-0.9c0,0-1.6-0.3-1.6-1.2L81.4,38c0,0,0.6-2.5,3.2-2.7
		c0,0,3.5-0.2,3.5,3.1v5.8c0,0,0,1.2-2,1.7v6.1h17.8c0,0,1.1,0,1.1-2.4v-3.3c0,0,0.1-1-1.5-0.9h-1.6c0,0-1.9-0.2-1.9-1.9V35
		c0,0,0-7.1-8.4-7c0,0-4.6,0-10.2,2.9L80,29H64.9z M57.1,11.6H1.8c0,0-1.8-0.1-1.8,1.8v6.1h4.7c0,0,1.6-0.3,1.6,1.6v23.4
		c0,0,0.2,1.1-1.1,1.1h-3c0,0-1.6,0-1.6,1.5v5.8h57.3c0,0,1.5,0.2,1.5-1.5v-16c0,0-2.6-1.6-8.2,0.1c0,0,1.3,8.3-4,9.9H21.5
		c0,0-1.1,0.3-1.1-1.1v-7.6c0,0-0.2-1.1,1.3-1.1h12.2c0,0,1.7-0.1,2.1,2.1c0,0,0.6,2.8,0.4,3.3h6.5V21.9h-6.4c0,0-0.6,3.4-0.8,3.8
		c0,0-0.6,2.3-2.2,2.3h-12c0,0-1.3,0-1.3-1.6v-5.5c0,0-0.1-1.2,1.5-1.2h26.1c0,0,3.6,0.6,3.6,7.1v1c0,0,0,0.7,1.4,0.7h5.2
		c0,0,1.2,0.1,1.2-2.7V13.7C59,13.7,59.4,11.6,57.1,11.6">
  </path>
 </g>
</svg>