<?xml version="1.0" encoding="UTF-8" standalone="no"?>
<!-- Created with Inkscape (http://www.inkscape.org/) -->

<svg
   width="400mm"
   height="400mm"
   viewBox="0 0 399.99999 399.99999"
   version="1.1"
   id="svg1"
   xml:space="preserve"
   inkscape:version="1.4.3 (0d15f75, 2025-12-25)"
   sodipodi:docname="weatherStation.svg"
   xmlns:inkscape="http://www.inkscape.org/namespaces/inkscape"
   xmlns:sodipodi="http://sodipodi.sourceforge.net/DTD/sodipodi-0.dtd"
   xmlns="http://www.w3.org/2000/svg"
   xmlns:svg="http://www.w3.org/2000/svg"><sodipodi:namedview
     id="namedview1"
     pagecolor="#505050"
     bordercolor="#eeeeee"
     borderopacity="1"
     inkscape:showpageshadow="0"
     inkscape:pageopacity="0"
     inkscape:pagecheckerboard="0"
     inkscape:deskcolor="#505050"
     inkscape:document-units="mm"
     inkscape:zoom="0.17215734"
     inkscape:cx="685.41952"
     inkscape:cy="711.5584"
     inkscape:window-width="1920"
     inkscape:window-height="991"
     inkscape:window-x="-9"
     inkscape:window-y="-9"
     inkscape:window-maximized="1"
     inkscape:current-layer="layer1" /><defs
     id="defs1"><inkscape:path-effect
       effect="fillet_chamfer"
       id="path-effect34"
       is_visible="true"
       lpeversion="1"
       nodesatellites_param="F,0,0,1,0,0,0,1 @ F,0,0,1,0,3.817142,0,1 @ F,0,0,1,0,6.248698,0,1 @ F,0,0,1,0,0,0,1"
       radius="0"
       unit="px"
       method="auto"
       mode="F"
       chamfer_steps="1"
       flexible="false"
       use_knot_distance="true"
       apply_no_radius="true"
       apply_with_radius="true"
       only_selected="false"
       hide_knots="false" /><inkscape:path-effect
       effect="fillet_chamfer"
       id="path-effect32"
       is_visible="true"
       lpeversion="1"
       nodesatellites_param="F,0,0,1,0,0,0,1 @ F,0,0,1,0,3.817142,0,1 @ F,0,0,1,0,6.248698,0,1 @ F,0,0,1,0,0,0,1"
       radius="0"
       unit="px"
       method="auto"
       mode="F"
       chamfer_steps="1"
       flexible="false"
       use_knot_distance="true"
       apply_no_radius="true"
       apply_with_radius="true"
       only_selected="false"
       hide_knots="false" /><inkscape:path-effect
       effect="fillet_chamfer"
       id="path-effect27"
       is_visible="true"
       lpeversion="1"
       nodesatellites_param="F,0,0,1,0,0,0,1 @ F,0,0,1,0,15.655386,0,1 @ F,0,0,1,0,0,0,1"
       radius="0"
       unit="px"
       method="auto"
       mode="F"
       chamfer_steps="1"
       flexible="false"
       use_knot_distance="true"
       apply_no_radius="true"
       apply_with_radius="true"
       only_selected="false"
       hide_knots="false" /><inkscape:path-effect
       effect="fillet_chamfer"
       id="path-effect24"
       is_visible="true"
       lpeversion="1"
       nodesatellites_param="F,0,0,1,0,0,0,1 @ F,0,0,1,0,8.8754204,0,1 @ F,0,0,1,0,0,0,1 @ F,0,0,1,0,0,0,1 @ F,0,0,1,0,0,0,1"
       radius="0"
       unit="px"
       method="auto"
       mode="F"
       chamfer_steps="1"
       flexible="false"
       use_knot_distance="true"
       apply_no_radius="true"
       apply_with_radius="true"
       only_selected="false"
       hide_knots="false" /><inkscape:path-effect
       effect="fillet_chamfer"
       id="path-effect23"
       is_visible="true"
       lpeversion="1"
       nodesatellites_param="F,0,0,1,0,0,0,1 @ F,0,0,1,0,0,0,1 @ F,0,0,1,0,19.877486,0,1 @ F,0,0,1,0,0,0,1"
       radius="0"
       unit="px"
       method="auto"
       mode="F"
       chamfer_steps="1"
       flexible="false"
       use_knot_distance="true"
       apply_no_radius="true"
       apply_with_radius="true"
       only_selected="false"
       hide_knots="false" /><inkscape:path-effect
       effect="fillet_chamfer"
       id="path-effect21"
       is_visible="true"
       lpeversion="1"
       nodesatellites_param="F,0,0,1,0,0,0,1 @ F,0,0,1,0,0,0,1 @ F,0,0,1,0,19.877486,0,1 @ F,0,0,1,0,0,0,1"
       radius="0"
       unit="px"
       method="auto"
       mode="F"
       chamfer_steps="1"
       flexible="false"
       use_knot_distance="true"
       apply_no_radius="true"
       apply_with_radius="true"
       only_selected="false"
       hide_knots="false" /><inkscape:path-effect
       effect="bspline"
       id="path-effect20"
       is_visible="true"
       lpeversion="1.3"
       weight="33.333333"
       steps="2"
       helper_size="0"
       apply_no_weight="true"
       apply_with_weight="true"
       only_selected="false"
       uniform="false" /><inkscape:path-effect
       effect="bspline"
       id="path-effect19"
       is_visible="true"
       lpeversion="1.3"
       weight="33.333333"
       steps="2"
       helper_size="0"
       apply_no_weight="true"
       apply_with_weight="true"
       only_selected="false"
       uniform="false" /><inkscape:path-effect
       effect="fillet_chamfer"
       id="path-effect12"
       is_visible="true"
       lpeversion="1"
       nodesatellites_param="F,0,0,1,0,0,0,1 @ F,0,0,1,0,8.2455691,0,1 @ F,0,0,1,0,0,0,1"
       radius="0"
       unit="px"
       method="auto"
       mode="F"
       chamfer_steps="1"
       flexible="false"
       use_knot_distance="true"
       apply_no_radius="true"
       apply_with_radius="true"
       only_selected="false"
       hide_knots="false" /><inkscape:path-effect
       effect="fillet_chamfer"
       id="path-effect10"
       is_visible="true"
       lpeversion="1"
       nodesatellites_param="F,0,0,1,0,0,0,1 @ F,0,0,1,0,8.2455691,0,1 @ F,0,0,1,0,0,0,1"
       radius="0"
       unit="px"
       method="auto"
       mode="F"
       chamfer_steps="1"
       flexible="false"
       use_knot_distance="true"
       apply_no_radius="true"
       apply_with_radius="true"
       only_selected="false"
       hide_knots="false" /><inkscape:path-effect
       effect="fillet_chamfer"
       id="path-effect4"
       is_visible="true"
       lpeversion="1"
       nodesatellites_param="F,0,0,1,0,0,0,1 @ F,0,0,1,0,12.592492,0,1 @ F,0,0,1,0,0,0,1"
       radius="0"
       unit="px"
       method="auto"
       mode="F"
       chamfer_steps="1"
       flexible="false"
       use_knot_distance="true"
       apply_no_radius="true"
       apply_with_radius="true"
       only_selected="false"
       hide_knots="false" /><inkscape:path-effect
       effect="fillet_chamfer"
       id="path-effect2"
       is_visible="true"
       lpeversion="1"
       nodesatellites_param="F,0,0,1,0,0,0,1 @ F,0,0,1,0,12.592492,0,1 @ F,0,0,1,0,0,0,1"
       radius="0"
       unit="px"
       method="auto"
       mode="F"
       chamfer_steps="1"
       flexible="false"
       use_knot_distance="true"
       apply_no_radius="true"
       apply_with_radius="true"
       only_selected="false"
       hide_knots="false" /></defs><g
     inkscape:label="Layer 1"
     inkscape:groupmode="layer"
     id="layer1"
     transform="translate(5.3850126,270.6395)"><path
       id="path74"
       style="baseline-shift:baseline;display:inline;overflow:visible;vector-effect:none;fill:currentcolor;stroke-width:0.999998;stroke-linecap:round;stroke-linejoin:round;enable-background:accumulate;stop-color:#000000"
       d="m 229.43003,-250.7463 c -12.67422,0 -23.03895,10.36197 -23.03895,23.03618 0,12.67423 10.36473,23.0384 23.03895,23.0384 11.26779,0 20.7073,-8.19221 22.66364,-18.91608 v -8.24519 c -1.95639,-10.72332 -11.39589,-18.91331 -22.66364,-18.91331 z m 95.20645,0 c -11.26777,0 -20.70782,8.18996 -22.66419,18.91331 v 8.24519 c 1.95633,10.72387 11.39639,18.91608 22.66419,18.91608 12.67423,0 23.03618,-10.36417 23.03618,-23.0384 0,-12.67421 -10.36195,-23.03618 -23.03618,-23.03618 z m -278.956749,10.73453 a 4.1233738,4.1233738 0 0 0 -3.570428,6.18431 l 13.23328,22.92049 -13.23328,22.91827 a 4.1233738,4.1233738 0 0 0 3.570428,6.18433 h 39.951156 a 4.1233738,4.1233738 0 0 0 3.570429,-2.062 l 13.231624,-22.91772 h 11.79293 v 47.63118 c 0,14.11089 11.52867,25.63955 25.63955,25.63955 h 34.02147 v -8.24575 h -34.02147 c -9.65447,0 -17.39325,-7.73934 -17.39325,-17.3938 v -47.63118 h 10.23081 v -8.24575 h -30.26949 l -13.232174,-22.92104 a 4.1233738,4.1233738 0 0 0 -3.570429,-2.06089 z m 231.352129,1.66676 c -4.36659,0 -8.16171,2.70413 -9.78795,6.51202 h -8.72292 v 8.24519 h 8.72292 c 1.08332,2.53662 3.12901,4.58393 5.66508,5.66784 v 20.71402 c -6.26647,1.96156 -10.86019,7.84232 -10.86019,14.72456 v 11.32352 h 8.2452 14.35312 8.24576 v -11.32352 c 0,-7.20067 -5.02693,-13.30513 -11.73814,-14.97143 v -20.46659 c 2.53675,-1.08385 4.58399,-3.13164 5.66785,-5.6684 h 8.72293 v -8.24519 h -8.72293 c -1.62697,-3.80789 -5.42411,-6.51202 -9.79073,-6.51202 z m -132.7142,18.84964 a 5.2459678,5.2459678 0 0 0 -5.18736,4.46553 v 8.24575 h 5.6e-4 a 5.2459678,5.2459678 0 0 0 5.1868,4.46387 h 18.09017 a 8.5876995,8.5876995 0 0 0 8.58785,-8.5873 8.5876995,8.5876995 0 0 0 -8.58785,-8.58785 z m 113.48482,54.76483 a 4.1233669,4.1233669 0 0 0 -4.12342,4.12289 v 18.84854 h -40.02313 v 8.24575 h 44.14655 26.26452 c 8.96478,0 16.32045,-7.35456 16.32045,-16.31934 v -10.77495 a 4.1233669,4.1233669 0 0 0 -4.12341,-4.12289 h -3.37116 z m -64.02968,4.58732 c -7.3835,-2e-5 -13.45858,6.07232 -13.45858,13.45581 V -108.925 66.789898 h 8.24575 10.42289 8.24575 V 19.850663 -29.326039 -108.925 v -24.58836 -13.17405 c 0,-7.38349 -6.07233,-13.45581 -13.45581,-13.45581 z m 74.4498,43.59687 c -17.31554,0 -31.44081,14.12474 -31.44081,31.440256 v 1.6125 h 87.97537 v -1.6125 c 0,-17.315516 -14.12695,-31.440256 -31.44247,-31.440256 z m -22.99909,39.480081 -7.74812,13.422049 h 86.58927 L 316.316,-77.066269 h -9.52336 -52.0491 z m 0,19.849373 -7.74812,13.419831 h 86.58927 l -7.74811,-13.419831 h -9.52391 -52.0491 z m 0,19.847156 -7.88816,13.662831 a 4.1233669,4.1233669 0 0 0 3.56932,6.184313 h 1.1381 c -1.7748,0 -3.21337,-1.439127 -3.21337,-3.213935 0,-1.774818 1.43857,-3.213389 3.21337,-3.213389 h 82.02189 l -7.74811,-13.41982 h -9.52391 -52.0491 z m 5.84719,19.847144 v 3.925262 3.9258075 8.2463077 h 1.19513 c 2.34337,5.5722972 7.87192,9.5205886 14.26012,9.5205886 h 14.24241 a 4.1229546,4.1229546 0 0 1 5.6e-4,0 4.1229546,4.1229546 0 0 1 5.5e-4,0 h 14.24242 c 8.48673,0 15.4558,-6.9690903 15.4558,-15.4558062 V -17.522596 h -8.24575 -42.90604 z m -37.41477,7.8510695 v 8.2463077 h 30.98744 V -9.6715265 Z M 164.9658,73.217222 c -11.7861,0 -21.42809,9.641999 -21.42809,21.4281 v 6.576228 h -23.69326 a 4.1229546,4.1229546 0 0 0 -4.12288,4.12287 4.1229546,4.1229546 0 0 0 4.12288,4.12288 h 27.81613 92.22444 27.81612 a 4.1229546,4.1229546 0 0 0 4.12344,-4.12288 4.1229546,4.1229546 0 0 0 -4.12344,-4.12287 h -23.69269 v -6.576228 c 0,-11.786101 -9.64477,-21.4281 -21.43087,-21.4281 h -4.21643 -11.13254 -38.0436 z" /></g></svg>
